<?xml version="1.0" encoding="utf-8"?>
<!-- Generator: Adobe Illustrator 21.1.0, SVG Export Plug-In . SVG Version: 6.00 Build 0)  -->
<svg version="1.1" id="_x31_" xmlns="http://www.w3.org/2000/svg" xmlns:xlink="http://www.w3.org/1999/xlink" x="0px" y="0px"
	 viewBox="0 0 38 37.2" style="enable-background:new 0 0 38 37.2;" xml:space="preserve">
<style type="text/css">
	.st0{fill:#777777;}
</style>
<path class="st0" d="M36.2,26.7H14.4c-1,0-1.6-0.8-1.7-1.5c-0.1-1,0.8-1.8,2.3-2.1c6.7-1.2,21.2-3.4,21.4-3.4
	c0.8-0.1,1.3-0.8,1.4-1.5L38,8.1c0-0.9-0.6-1.6-1.5-1.6L11.1,4.9L9.6,1C9.4,0.4,8.8,0,8.2,0H1.6C0.7,0,0,0.7,0,1.6
	c0,0.9,0.7,1.6,1.6,1.6h5.5l6.6,17c-3,0.9-4.3,3.2-4.1,5.3c0.2,2.5,2.3,4.4,4.8,4.4h21.8c0.9,0,1.6-0.7,1.6-1.6
	C37.8,27.4,37.1,26.7,36.2,26.7z M21.8,14.4l5.4,0l0.3,3.5c-1.6,0.2-3.2,0.5-4.9,0.8L21.8,14.4z M27.1,12.8l-5.6,0l-0.9-4.1l6.1,0.4
	L27.1,12.8z M20.2,14.4l0.9,4.5c-1.5,0.2-3,0.5-4.3,0.7l-2-5.2L20.2,14.4z M29.1,17.6l-0.3-3.3l5.8,0l-0.1,2.5
	C33.4,17,31.4,17.3,29.1,17.6z M34.7,12.7l-6,0l-0.3-3.6l6.4,0.4L34.7,12.7z M19,8.6l0.9,4.2l-5.7,0l-1.8-4.7L19,8.6z M17.7,34.4
	c0,1.6-1.3,2.9-2.9,2.9S12,35.9,12,34.4c0-1.6,1.3-2.9,2.9-2.9S17.7,32.8,17.7,34.4z M36.8,34.4c0,1.6-1.3,2.9-2.9,2.9
	c-1.6,0-2.9-1.3-2.9-2.9c0-1.6,1.3-2.9,2.9-2.9C35.5,31.5,36.8,32.8,36.8,34.4z"/>
</svg>
