<?xml version="1.0" encoding="utf-8"?>
<!-- Generator: Adobe Illustrator 19.0.0, SVG Export Plug-In . SVG Version: 6.00 Build 0)  -->
<svg version="1.2" baseProfile="tiny" id="Слой_1"
	 xmlns="http://www.w3.org/2000/svg" xmlns:xlink="http://www.w3.org/1999/xlink" x="0px" y="0px" viewBox="0 0 358.3 92"
	 xml:space="preserve">
<path id="XMLID_1_" fill="#42AD4F" stroke="#FFFFFF" stroke-miterlimit="10" d="M1.3,1.9c28.6,0,59.5,0,59.5,0l18.2,28.7l-18.4,29
	H1.3V1.9z"/>
<polygon id="XMLID_3_" fill="#FFFFFF" stroke="#FFFFFF" stroke-width="4" stroke-miterlimit="10" points="27.7,26.7 27.7,12 
	35.9,12 35.9,26.7 50.6,26.7 50.6,34.9 35.9,34.9 35.9,49.5 27.7,49.5 27.7,34.9 13.1,34.9 13.1,26.7 "/>
<g id="XMLID_2_">
	<rect id="XMLID_132_" x="95.3" fill="none" width="383" height="65.3"/>
	<path id="XMLID_65_" fill="#23ACE3" stroke="#27ABE3" stroke-width="3" stroke-miterlimit="10" d="M166.4,60h-12.6V26
		c0-3.7,0.2-7.7,0.5-12.1h-0.3c-0.7,3.5-1.3,6-1.8,7.5L138.8,60h-10.4l-13.5-38.2c-0.4-1-1-3.7-1.8-7.9h-0.4
		c0.3,5.6,0.5,10.5,0.5,14.7V60h-11.5V3.2h18.7L132,36.9c0.9,2.7,1.6,5.4,2,8.1h0.2c0.7-3.1,1.5-5.9,2.3-8.2l11.6-33.5h18.2V60z"/>
	<path id="XMLID_122_" fill="#23ACE3" stroke="#27ABE3" stroke-width="3" stroke-miterlimit="10" d="M210.8,60h-34V3.2h32.7v10.4
		h-19.9v12.6h18.5v10.4h-18.5v13h21.2V60z"/>
	<path id="XMLID_124_" fill="#23ACE3" stroke="#27ABE3" stroke-width="3" stroke-miterlimit="10" d="M217.5,60V3.2h20.1
		c20.1,0,30.2,9.2,30.2,27.6c0,8.8-2.7,15.9-8.2,21.2c-5.5,5.3-12.8,7.9-22,7.9H217.5z M230.3,13.6v36h6.3c5.5,0,9.9-1.7,13-5
		s4.7-7.8,4.7-13.6c0-5.4-1.6-9.7-4.7-12.8c-3.1-3.1-7.5-4.6-13.2-4.6H230.3z"/>
	<path id="XMLID_127_" stroke="#000000" stroke-width="3" stroke-miterlimit="10" d="M286.9,49.4v0.2h23V60h-37.3v-9.7l16.3-15.5
		c3.3-3.1,5.6-5.8,6.9-7.9s2-4.4,2-6.7c0-5.2-2.8-7.8-8.4-7.8c-4.9,0-9.5,1.9-14,5.8v-11c4.9-3.2,10.5-4.8,16.7-4.8
		c5.8,0,10.3,1.5,13.6,4.4c3.3,2.9,4.9,6.8,4.9,11.8c0,6.6-4,13.5-11.9,20.5L286.9,49.4z"/>
	<path id="XMLID_129_" stroke="#000000" stroke-width="3" stroke-miterlimit="10" d="M356.9,47.9h-6.8V60h-11.4V47.9H314v-8
		l23.8-36.7h12.3V39h6.8V47.9z M338.9,15.7h-0.2c-0.4,0.9-1.1,2.4-2.1,4.4L324.4,39h14.4V21.2C338.7,19.6,338.8,17.8,338.9,15.7z"/>
</g>
<g id="XMLID_20_">
</g>
<g id="XMLID_24_">
	<rect id="XMLID_120_" y="67" fill="none" width="358.3" height="63"/>
	<path id="XMLID_66_" fill="#676767" d="M21.8,87h-2.2V74.3c0-1,0.1-2.2,0.2-3.7h-0.1c-0.2,0.9-0.4,1.5-0.6,1.8L12.7,87h-1.1
		L5.1,72.6c-0.2-0.4-0.4-1.1-0.6-1.9H4.5c0.1,0.8,0.1,2,0.1,3.7V87H2.5V68.1h2.9l5.8,13.2c0.4,1,0.7,1.8,0.9,2.3h0.1
		c0.4-1,0.7-1.8,0.9-2.3L19,68.1h2.8V87z"/>
	<path id="XMLID_68_" fill="#676767" d="M38.1,80.8h-9.5c0,1.5,0.4,2.7,1.2,3.5c0.8,0.8,1.8,1.2,3.2,1.2c1.5,0,2.9-0.5,4.2-1.5v2
		c-1.2,0.9-2.8,1.3-4.7,1.3c-1.9,0-3.4-0.6-4.5-1.8c-1.1-1.2-1.6-3-1.6-5.2c0-2.1,0.6-3.8,1.8-5.1c1.2-1.3,2.7-2,4.4-2
		s3.1,0.6,4.1,1.7s1.5,2.7,1.5,4.8V80.8z M35.9,78.9c0-1.2-0.3-2.2-0.9-2.9c-0.6-0.7-1.4-1-2.5-1c-1,0-1.9,0.4-2.6,1.1
		s-1.2,1.7-1.3,2.9H35.9z"/>
	<path id="XMLID_71_" fill="#676767" d="M53.9,91.9h-1.8V87h-10v4.9h-1.8v-6.8h1.2c2.3-3.3,3.5-7.2,3.5-11.7h7v11.7h2V91.9z
		 M49.8,85.2v-9.8h-3c-0.2,3.6-1.3,6.9-3.1,9.8H49.8z"/>
	<path id="XMLID_74_" fill="#676767" d="M69.1,87h-2V76.2c-0.2,0.4-0.5,0.9-0.9,1.6L60,87h-2.2V73.5h2v10.6c0.1-0.3,0.3-0.7,0.7-1.3
		l6.4-9.3h2.2V87z"/>
	<path id="XMLID_76_" fill="#676767" d="M85.1,87H83v-5.4c-1.6,0.9-3,1.3-4.4,1.3c-3,0-4.5-1.6-4.5-4.8v-4.6h2.2v4.5
		c0,2,0.9,3,2.6,3c1.3,0,2.7-0.4,4.2-1.1v-6.3h2.1V87z"/>
	<path id="XMLID_78_" fill="#676767" d="M101.5,87h-2.2v-6.1h-6.9V87h-2.2V73.5h2.2V79h6.9v-5.5h2.2V87z"/>
	<path id="XMLID_80_" fill="#676767" d="M107.8,70.1c-0.4,0-0.7-0.1-1-0.4s-0.4-0.6-0.4-1s0.1-0.7,0.4-1c0.3-0.3,0.6-0.4,1-0.4
		c0.4,0,0.7,0.1,1,0.4c0.3,0.3,0.4,0.6,0.4,1c0,0.4-0.1,0.7-0.4,1C108.5,69.9,108.2,70.1,107.8,70.1z M108.9,87h-2.2V73.5h2.2V87z"
		/>
	<path id="XMLID_83_" fill="#676767" d="M130.7,75.3h-4V87h-2.2V75.3h-4.1v-1.8h10.3V75.3z"/>
	<path id="XMLID_85_" fill="#676767" d="M139.3,87.3c-2,0-3.6-0.6-4.8-1.9c-1.2-1.3-1.8-2.9-1.8-5c0-2.3,0.6-4,1.9-5.3
		c1.2-1.3,2.9-1.9,5-1.9c2,0,3.6,0.6,4.7,1.9c1.1,1.2,1.7,3,1.7,5.2c0,2.2-0.6,3.9-1.8,5.2C143,86.7,141.3,87.3,139.3,87.3z
		 M139.5,75c-1.4,0-2.5,0.5-3.3,1.4c-0.8,0.9-1.2,2.2-1.2,3.9c0,1.6,0.4,2.9,1.2,3.8c0.8,0.9,1.9,1.4,3.3,1.4c1.4,0,2.5-0.5,3.2-1.4
		c0.8-0.9,1.1-2.2,1.1-3.9c0-1.7-0.4-3-1.1-3.9C141.9,75.4,140.9,75,139.5,75z"/>
	<path id="XMLID_88_" fill="#676767" d="M150.3,87V73.5h5.9c1.3,0,2.4,0.3,3.1,0.9c0.8,0.6,1.2,1.4,1.2,2.4c0,1.7-0.9,2.8-2.6,3.2
		c2.1,0.3,3.1,1.3,3.1,3.1c0,1.1-0.4,2-1.3,2.8c-0.8,0.7-1.9,1.1-3.2,1.1H150.3z M152.4,75.3v3.8h3.2c1.7,0,2.6-0.7,2.6-2
		c0-1.2-0.8-1.8-2.3-1.8H152.4z M152.4,81v4.2h3.7c1.7,0,2.6-0.7,2.6-2.1c0-1.4-1-2-2.9-2H152.4z"/>
	<path id="XMLID_92_" fill="#676767" d="M175.1,87h-2.2v-2.1h-0.1c-0.9,1.6-2.3,2.4-4.2,2.4c-1.3,0-2.4-0.4-3.2-1.1
		c-0.8-0.7-1.1-1.7-1.1-2.8c0-2.5,1.5-4,4.5-4.4l4-0.6c0-2.3-0.9-3.4-2.8-3.4c-1.6,0-3.1,0.6-4.4,1.7v-2.2c1.3-0.8,2.9-1.3,4.6-1.3
		c3.2,0,4.8,1.7,4.8,5V87z M172.9,80.2l-3.3,0.4c-1,0.1-1.8,0.4-2.3,0.7c-0.5,0.4-0.8,1-0.8,1.9c0,0.7,0.2,1.2,0.7,1.6
		c0.5,0.4,1.1,0.6,1.9,0.6c1.1,0,2-0.4,2.7-1.1c0.7-0.8,1-1.7,1-2.9V80.2z"/>
	<path id="XMLID_95_" fill="#676767" d="M182.2,85L182.2,85l-0.1,8.2h-2.2V73.5h2.2v2.4h0.1c1.1-1.8,2.6-2.7,4.7-2.7
		c1.7,0,3.1,0.6,4.1,1.8c1,1.2,1.5,2.8,1.5,4.9c0,2.3-0.5,4.1-1.6,5.4c-1.1,1.4-2.6,2-4.5,2C184.5,87.3,183.1,86.5,182.2,85z
		 M182.1,79.6v1.9c0,1.1,0.4,2.1,1.1,2.8c0.7,0.8,1.6,1.2,2.8,1.2c1.3,0,2.3-0.5,3.1-1.5c0.7-1,1.1-2.4,1.1-4.2c0-1.5-0.3-2.7-1-3.5
		c-0.7-0.9-1.6-1.3-2.8-1.3c-1.3,0-2.3,0.4-3,1.3C182.5,77.2,182.1,78.3,182.1,79.6z"/>
	<path id="XMLID_98_" fill="#676767" d="M207.9,87h-2V76.2c-0.2,0.4-0.5,0.9-0.9,1.6l-6.2,9.2h-2.2V73.5h2v10.6
		c0.1-0.3,0.3-0.7,0.7-1.3l6.4-9.3h2.2V87z"/>
	<path id="XMLID_100_" fill="#676767" d="M229.8,75.3h-4V87h-2.2V75.3h-4.1v-1.8h10.3V75.3z"/>
	<path id="XMLID_102_" fill="#676767" d="M242.9,87h-2.2v-2.1h-0.1c-0.9,1.6-2.3,2.4-4.2,2.4c-1.3,0-2.4-0.4-3.2-1.1
		c-0.8-0.7-1.1-1.7-1.1-2.8c0-2.5,1.5-4,4.5-4.4l4-0.6c0-2.3-0.9-3.4-2.8-3.4c-1.6,0-3.1,0.6-4.4,1.7v-2.2c1.3-0.8,2.9-1.3,4.6-1.3
		c3.2,0,4.8,1.7,4.8,5V87z M240.7,80.2l-3.3,0.4c-1,0.1-1.8,0.4-2.3,0.7c-0.5,0.4-0.8,1-0.8,1.9c0,0.7,0.2,1.2,0.7,1.6
		c0.5,0.4,1.1,0.6,1.9,0.6c1.1,0,2-0.4,2.7-1.1c0.7-0.8,1-1.7,1-2.9V80.2z"/>
	<path id="XMLID_105_" fill="#676767" d="M267.2,87H265V75.3h-6.9V87H256V73.5h11.2V87z"/>
	<path id="XMLID_107_" fill="#676767" d="M278,87.3c-2,0-3.6-0.6-4.8-1.9c-1.2-1.3-1.8-2.9-1.8-5c0-2.3,0.6-4,1.9-5.3
		c1.2-1.3,2.9-1.9,5-1.9c2,0,3.6,0.6,4.7,1.9c1.1,1.2,1.7,3,1.7,5.2c0,2.2-0.6,3.9-1.8,5.2C281.7,86.7,280.1,87.3,278,87.3z
		 M278.2,75c-1.4,0-2.5,0.5-3.3,1.4c-0.8,0.9-1.2,2.2-1.2,3.9c0,1.6,0.4,2.9,1.2,3.8c0.8,0.9,1.9,1.4,3.3,1.4c1.4,0,2.5-0.5,3.2-1.4
		c0.8-0.9,1.1-2.2,1.1-3.9c0-1.7-0.4-3-1.1-3.9C280.6,75.4,279.6,75,278.2,75z"/>
	<path id="XMLID_110_" fill="#676767" d="M298.2,86.4c-1,0.6-2.3,0.9-3.7,0.9c-1.9,0-3.5-0.6-4.7-1.9c-1.2-1.3-1.8-2.9-1.8-4.9
		c0-2.2,0.6-4,1.9-5.4c1.3-1.3,3-2,5.1-2c1.2,0,2.2,0.2,3.1,0.7V76c-1-0.7-2.1-1.1-3.2-1.1c-1.4,0-2.5,0.5-3.4,1.5
		c-0.9,1-1.3,2.3-1.3,3.9c0,1.6,0.4,2.8,1.2,3.7c0.8,0.9,1.9,1.4,3.3,1.4c1.2,0,2.3-0.4,3.3-1.2V86.4z"/>
	<path id="XMLID_112_" fill="#676767" d="M312.1,87H310V75.3h-3.1c-0.4,4.4-1,7.4-1.9,9.2c-0.9,1.8-2,2.6-3.5,2.6
		c-0.4,0-0.8-0.1-1.2-0.2v-1.9c0.3,0.2,0.6,0.2,1,0.2c1.9,0,3.2-4,3.7-11.9h7.1V87z"/>
	<path id="XMLID_114_" fill="#676767" d="M328.1,73.5l-6.2,15.7c-1.1,2.8-2.7,4.2-4.7,4.2c-0.6,0-1-0.1-1.4-0.2v-1.9
		c0.5,0.2,0.9,0.2,1.3,0.2c1.1,0,1.9-0.7,2.5-2l1.1-2.6l-5.3-13.5h2.4l3.7,10.4c0,0.1,0.1,0.5,0.3,1h0.1c0-0.2,0.1-0.5,0.3-1
		l3.8-10.4H328.1z"/>
	<path id="XMLID_116_" fill="#676767" d="M338.7,75.3h-5.3V87h-2.2V73.5h7.5V75.3z"/>
	<path id="XMLID_118_" fill="#676767" d="M353.6,87h-2V76.2c-0.2,0.4-0.5,0.9-0.9,1.6l-6.2,9.2h-2.2V73.5h2v10.6
		c0.1-0.3,0.3-0.7,0.7-1.3l6.4-9.3h2.2V87z"/>
</g>
<g id="XMLID_7_">
</g>
<g id="XMLID_4_">
</g>
<g id="XMLID_23_">
</g>
<g id="XMLID_133_">
</g>
<g id="XMLID_134_">
</g>
<g id="XMLID_135_">
</g>
<g id="XMLID_136_">
</g>
</svg>
